<svg version="1.0" xmlns="http://www.w3.org/2000/svg" width="961" height="914" preserveAspectRatio="xMidYMid meet"><rect id="backgroundrect" width="100%" height="100%" x="0" y="0" fill="none" stroke="none"/>
<metadata>
Created by potrace 1.16, written by Peter Selinger 2001-2019
</metadata>

<g class="currentLayer" style=""><title>Layer 1</title><g transform="translate(0, 914) scale(0.1, -0.1)" fill="#000000" stroke="none" id="svg_1" class="">
<path d="M2701 4576 c-1485 -2510 -2701 -4566 -2701 -4570 0 -3 543 -6 1206 -6 l1206 0 1511 1066 c832 587 1519 1073 1527 1081 13 12 -77 13 -640 11 l-655 -3 -560 -334 c-308 -184 -571 -341 -585 -350 -24 -16 -24 -14 7 39 18 30 558 970 1200 2087 642 1118 1170 2033 1173 2033 3 0 484 -835 1069 -1855 l1064 -1856 1038 3 c570 2 1040 6 1044 10 8 8 -4183 7208 -4195 7208 -4 0 -1223 -2054 -2709 -4564z" id="svg_2"/>
<path d="M5107 3513 c-131 -269 -237 -491 -237 -495 0 -5 243 -8 540 -8 297 0 540 3 540 6 0 12 -592 984 -600 984 -3 0 -113 -219 -243 -487z" id="svg_3"/>
</g><g transform="translate(0, 914) scale(0.1, -0.1)" fill="#b3b3b3" stroke="none" class="selected" id="svg_4" fill-opacity="1">
<path d="M2701,4575.999999999998 c-1485,-2510 -2701,-4566 -2701,-4570 c0,-3 543,-6 1206,-6 l1206,0 l1511,1066 c832,587 1519,1073 1527,1081 c13,12 -77,13 -640,11 l-655,-3 l-560,-334 c-308,-184 -571,-341 -585,-350 c-24,-16 -24,-14 7,39 c18,30 558,970 1200,2087 c642,1118 1170,2033 1173,2033 c3,0 484,-835 1069,-1855 l1064,-1856 l1038,3 c570,2 1040,6 1044,10 c8,8 -4183,7208 -4195,7208 c-4,0 -1223,-2054 -2709,-4564 z" id="svg_6" fill="#b3b3b3" fill-opacity="1"/>
<path d="M5107,3512.999999999998 c-131,-269 -237,-491 -237,-495 c0,-5 243,-8 540,-8 c297,0 540,3 540,6 c0,12 -592,984 -600,984 c-3,0 -113,-219 -243,-487 z" id="svg_8" fill="#b3b3b3" fill-opacity="1"/>
</g></g></svg>