<svg xmlns="http://www.w3.org/2000/svg" width="272.79144385844893" height="132" fill="none"><rect id="backgroundrect" width="100%" height="100%" x="0" y="0" fill="none" stroke="none" class="" style=""/>




<g class="currentLayer" style=""><title>Layer 1</title><path d="M-106.48775934267044,-220.374 C-87.41105934267044,-234.987 -59.842659342670444,-262.556 -45.254459342670444,-281.608 L-20.116559342670442,-314.398 C-5.503769342670441,-333.474 24.63004065732956,-341.534 46.86374065732956,-332.277 L85.05574065732957,-316.414 C107.26524065732956,-307.181 144.96224065732957,-297.052 168.80724065732957,-293.92 L209.80824065732955,-288.518 C233.65424065732955,-285.385 255.75224065732954,-263.287 258.8852406573296,-239.441 L264.28724065732956,-198.44 C267.41924065732957,-174.594 277.57324065732956,-136.922 286.78124065732953,-114.688 L302.64424065732953,-76.4963 C311.87724065732954,-54.2871 303.81724065732953,-24.1533 284.76524065732957,-9.51603 L251.97524065732955,15.6218 C232.89824065732955,30.2346 205.33024065732957,57.803 190.74224065732955,76.855 L165.60424065732957,109.645 C150.99124065732957,128.721 120.85724065732956,136.782 98.62374065732956,127.524 L60.43174065732956,111.661 C38.22254065732956,102.428 0.5255806573295594,92.2997 -23.32015934267044,89.1669 L-64.32115934267044,83.7649 C-88.16685934267043,80.6322 -110.26475934267044,58.5343 -113.39775934267044,34.6886 L-118.79975934267044,-6.3124 C-121.93275934267044,-30.1581 -132.08575934267043,-67.8306 -141.29375934267043,-90.0643 L-157.18175934267043,-128.281 C-166.38975934267043,-150.515 -158.32975934267043,-180.648 -139.27775934267044,-195.237 L-106.48775934267044,-220.374 z" fill="#EE2B45" id="svg_1" class=""/><path d="M32.0002 50.5825C32.0002 44.1888 33.9545 39.0549 37.8946 35.1179C41.8347 31.1809 46.9726 29.1967 53.3713 29.1967C59.7385 29.1967 64.8764 31.1809 68.848 35.1179C72.7881 39.0549 74.7739 44.2203 74.7739 50.5825C74.7739 56.9762 72.7881 62.1415 68.848 66.0785C64.9079 70.0156 59.7385 71.9998 53.3713 71.9998C46.9726 71.9998 41.8347 70.0156 37.8946 66.0785C33.9545 62.1415 32.0002 56.9762 32.0002 50.5825ZM37.3272 50.5825C37.3272 55.5589 38.7772 59.5274 41.6771 62.488C44.577 65.4486 48.4541 66.8974 53.3398 66.8974C58.194 66.8974 62.071 65.4171 64.9709 62.4565C67.8708 59.4959 69.3208 55.5274 69.3208 50.5825C69.3208 45.6376 67.8708 41.6691 64.9709 38.74C62.071 35.8108 58.194 34.3305 53.3398 34.3305C48.4541 34.3305 44.5455 35.8108 41.6771 38.74C38.8087 41.6691 37.3272 45.6376 37.3272 50.5825Z" fill="white" id="svg_2" class=""/><path d="M127.414 65.2913C127.319 65.1338 127.098 65.0708 126.941 65.1653C124.766 66.3306 122.307 66.8976 119.533 66.8976C114.648 66.8976 110.739 65.4173 107.871 62.4881C105.002 59.559 103.521 55.5905 103.521 50.5826C103.521 45.6692 104.971 41.7007 107.902 38.7086C110.834 35.685 114.648 34.1732 119.344 34.1732C122.307 34.1732 124.86 34.7401 127.004 35.9054C127.161 35.9999 127.382 35.9369 127.477 35.7795L129.652 31.9369C129.746 31.748 129.683 31.5275 129.494 31.433C126.563 29.9527 123.253 29.1968 119.502 29.1968C113.103 29.1968 107.965 31.181 104.025 35.118C100.148 39.055 98.1938 44.2204 98.1938 50.5826C98.1938 56.9763 100.148 62.1417 104.088 66.0787C108.028 70.0157 113.166 71.9999 119.565 71.9999C123.284 71.9999 126.594 71.244 129.525 69.7322C129.715 69.6377 129.778 69.4173 129.683 69.2283L127.414 65.2913Z" fill="white" id="svg_3" class=""/><path d="M94.8211 66.4881C94.758 66.3621 94.632 66.2991 94.5059 66.2991C94.0961 66.3306 93.245 66.3936 92.8038 66.3936C90.9756 66.3936 89.7147 66.0471 89.0528 65.3857C88.3909 64.7243 88.0441 62.8975 88.0441 59.9054V34.992H94.4744C94.6004 34.992 94.7265 34.929 94.7896 34.803L96.8384 31.1495C96.9645 30.929 96.8069 30.6455 96.5232 30.6455H88.0441V24.3463C88.0441 24.1574 87.8865 23.9999 87.6974 23.9999H83.9149C83.7258 23.9999 83.5997 24.1574 83.5682 24.3148C83.3475 27.7479 79.7542 30.992 76.3184 31.181C76.1293 31.181 75.9717 31.3385 75.9717 31.5274V34.6455C75.9717 34.8345 76.1293 34.992 76.3184 34.992H82.7486V60.6613C82.7486 64.5668 83.3475 67.307 84.5453 68.8818C85.7431 70.4566 87.7289 71.244 90.5343 71.244C91.4799 71.244 92.5201 71.181 93.5603 71.0235C94.4744 70.8975 95.483 70.7085 96.5232 70.4881C96.7439 70.4251 96.8699 70.1731 96.7438 69.9841L94.8211 66.4881Z" fill="white" id="svg_4" class=""/></g></svg>