<svg xmlns="http://www.w3.org/2000/svg" xmlns:xlink="http://www.w3.org/1999/xlink" version="1.1" style="" xml:space="preserve" width="367.6" height="367.6"><rect id="backgroundrect" width="100%" height="100%" x="0" y="0" fill="none" stroke="none"/>
















<g class="currentLayer" style=""><title>Layer 1</title><g id="svg_1" class="selected" fill="#ffffff" fill-opacity="1">
	<g id="svg_2" fill="#ffffff" fill-opacity="1">
		<g id="svg_3" fill="#ffffff" fill-opacity="1">
			<path d="M328.6,81.6c-0.4,0-0.4-0.4-0.8-0.8c-0.4-0.4-0.4-0.8-0.8-1.2L258.2,2.4c-0.4-0.4-1.2-0.8-1.6-1.2     c-0.4,0-0.4-0.4-0.8-0.4c-0.8-0.4-2-0.8-3.2-0.8H83.8C59,0,38.6,20.4,38.6,45.2v277.2c0,24.8,20.4,45.2,45.2,45.2h200     c24.8,0,45.2-20.4,45.2-45.2v-238C329,83.6,328.6,82.4,328.6,81.6z M260.2,27.2l44.4,50h-44.4V27.2z M313.8,322     c0,16.8-13.2,30.4-30,30.4h-200c-16.8,0-30-13.6-30-30V44.8c0-16.8,13.6-30,30-30H245v69.6c0,4,3.2,7.6,7.6,7.6h61.2V322z" id="svg_4" fill="#ffffff" fill-opacity="1"/>
			<path d="M92.6,92h66.8c4,0,7.6-3.2,7.6-7.6s-3.2-7.6-7.6-7.6H92.6c-4,0-7.6,3.2-7.6,7.6S88.6,92,92.6,92z" id="svg_5" fill="#ffffff" fill-opacity="1"/>
			<path d="M159.4,275.6H92.6c-4,0-7.6,3.2-7.6,7.6c0,4,3.2,7.6,7.6,7.6h66.8c4,0,7.6-3.2,7.6-7.6     C167,279.2,163.4,275.6,159.4,275.6z" id="svg_6" fill="#ffffff" fill-opacity="1"/>
			<path d="M85,134.8c0,4,3.2,7.6,7.6,7.6H271c4,0,7.6-3.2,7.6-7.6c0-4-3.2-7.6-7.6-7.6H92.6C88.6,127.2,85,130.4,85,134.8z" id="svg_7" fill="#ffffff" fill-opacity="1"/>
			<path d="M271,164.8H92.6c-4,0-7.6,3.2-7.6,7.6c0,4,3.2,7.6,7.6,7.6H271c4,0,7.6-3.2,7.6-7.6C278.6,168,275.4,164.8,271,164.8z" id="svg_8" fill="#ffffff" fill-opacity="1"/>
			<path d="M271,202H92.6c-4,0-7.6,3.2-7.6,7.6c0,4,3.2,7.6,7.6,7.6H271c4,0,7.6-3.2,7.6-7.6C278.6,205.2,275.4,202,271,202z" id="svg_9" fill="#ffffff" fill-opacity="1"/>
			<path d="M271,239.2H92.6c-4,0-7.6,3.2-7.6,7.6c0,4,3.2,7.6,7.6,7.6H271c4,0,7.6-3.2,7.6-7.6C278.6,242.8,275.4,239.2,271,239.2z" id="svg_10" fill="#ffffff" fill-opacity="1"/>
		</g>
	</g>
</g><g id="svg_11" class="selected" fill="#ffffff" fill-opacity="1">
</g><g id="svg_12" class="selected" fill="#ffffff" fill-opacity="1">
</g><g id="svg_13" class="selected" fill="#ffffff" fill-opacity="1">
</g><g id="svg_14" class="selected" fill="#ffffff" fill-opacity="1">
</g><g id="svg_15" class="selected" fill="#ffffff" fill-opacity="1">
</g><g id="svg_16" class="selected" fill="#ffffff" fill-opacity="1">
</g><g id="svg_17" class="selected" fill="#ffffff" fill-opacity="1">
</g><g id="svg_18" class="selected" fill="#ffffff" fill-opacity="1">
</g><g id="svg_19" class="selected" fill="#ffffff" fill-opacity="1">
</g><g id="svg_20" class="selected" fill="#ffffff" fill-opacity="1">
</g><g id="svg_21" class="selected" fill="#ffffff" fill-opacity="1">
</g><g id="svg_22" class="selected" fill="#ffffff" fill-opacity="1">
</g><g id="svg_23" class="selected" fill="#ffffff" fill-opacity="1">
</g><g id="svg_24" class="selected" fill="#ffffff" fill-opacity="1">
</g><g id="svg_25" class="selected" fill="#ffffff" fill-opacity="1">
</g></g></svg>